<svg width="329" height="149" viewBox="0 0 329 149" fill="none" xmlns="http://www.w3.org/2000/svg">
<path d="M67.2369 138.943C66.0164 136.062 65.2662 132.564 64.8894 128.959C66.9947 131.831 68.8237 134.298 69.9294 135.92C75.4665 144.918 85.5414 144.885 76.9439 136.19C71.3044 130.528 67.0811 120.19 64.8574 112.349L65.0602 112.211C65.2631 112.073 65.4336 112.105 65.4659 111.935C65.6687 111.796 65.8716 111.658 66.0421 111.691C66.2449 111.552 66.4154 111.585 66.4477 111.414C66.6506 111.276 66.8534 111.138 67.0239 111.17C67.2267 111.032 67.2267 111.032 67.4296 110.894C67.6324 110.755 67.8352 110.617 68.0381 110.479C68.2409 110.341 68.4437 110.203 68.476 110.032C68.6789 109.894 68.8817 109.756 69.0845 109.617C69.2874 109.479 69.3197 109.309 69.4902 109.341C69.693 109.203 69.693 109.203 69.8958 109.065C70.0987 108.926 70.131 108.756 70.3338 108.618C70.3661 108.447 70.5366 108.48 70.5689 108.309C70.7718 108.171 70.8041 108 71.0069 107.862C71.0069 107.862 71.0069 107.862 71.0392 107.692C71.9798 106.457 72.7499 105.189 73.3171 104.06C73.6258 104.296 73.9991 104.19 74.6076 103.775C75.6218 103.084 73.843 102.217 76.7383 99.0563C77.7848 98.1948 78.5548 96.9275 78.9838 95.5957C83.1086 96.2007 82.8699 92.7993 82.8699 92.7993L83.8607 93.1637C82.6725 90.1123 79.815 90.2774 78.7273 90.4245C78.6214 90.0512 78.4832 89.8484 78.2068 89.4427C76.8894 87.0734 74.1844 85.501 71.1564 85.6337C69.0132 85.7575 67.0819 86.628 65.7357 88.1393C63.2783 90.8532 61.1029 91.1475 59.6418 91.4006C58.9274 91.4418 58.66 91.9211 58.7013 92.6354C54.6591 93.4592 39.2926 95.3166 31.6606 94.5769L11.1285 93.8657C10.958 93.8334 10.958 93.8334 10.7875 93.8011C9.18819 93.8513 8.04477 95.2244 8.09499 96.8237C8.10394 97.7086 8.6891 98.3494 9.27423 98.9902L8.73036 99.0638C8.55984 99.0314 8.55985 99.0315 8.35702 99.1697C6.72542 99.3904 5.72023 100.966 5.97328 102.427C6.19402 104.059 7.76993 105.064 9.231 104.811L10.4893 104.696C9.81616 105.452 9.65459 106.305 9.80175 107.392C10.2253 108.886 11.8012 109.891 13.3269 109.297L33.8287 103.643C34.211 104.422 34.5933 105.201 35.0079 105.81C33.3619 107.971 33.8914 109.837 37.2515 108.884C37.422 108.917 37.3897 109.087 37.5602 109.12C33.7567 113.345 34.2071 117.493 39.2779 114.038C35.6538 119.18 36.7217 123.798 41.6776 119.085C38.3801 126.232 41.5355 131.953 45.7969 122.515C46.3641 121.386 46.9313 120.257 47.669 119.161C47.4016 119.64 47.1018 120.29 46.8667 120.598C42.4169 128.234 45.0463 135.798 48.0619 131.07C47.5897 138.223 52.0177 141.888 53.1774 132.039C53.3713 131.016 53.5975 129.823 53.8236 128.629C53.9062 130.058 53.8505 131.284 53.8272 132.339C53.2526 142.829 61.3439 148.601 59.3518 136.742C59.1311 135.111 58.9427 133.308 58.9571 131.368C59.4865 133.235 59.8778 134.899 59.9926 136.157C62.8194 146.408 72.0129 150.093 67.2369 138.943Z" fill="#555555"/>
<path d="M315.051 53.9224C313.187 51.4096 311.635 48.1859 310.421 44.7716C313.143 47.0675 315.501 49.0343 316.957 50.3512C324.456 57.7939 334.24 55.3905 323.838 48.9626C317.025 44.7871 310.488 35.7321 306.482 28.6351L306.646 28.4531C306.811 28.271 306.984 28.2624 306.976 28.089C307.14 27.907 307.305 27.7249 307.478 27.7162C307.643 27.5341 307.816 27.5255 307.807 27.3521C307.972 27.1701 308.137 26.988 308.31 26.9793C308.475 26.7973 308.475 26.7972 308.639 26.6152C308.804 26.4331 308.968 26.2511 309.133 26.0691C309.298 25.887 309.462 25.705 309.454 25.5317C309.618 25.3496 309.783 25.1675 309.947 24.9855C310.112 24.8034 310.103 24.6301 310.277 24.6214C310.441 24.4394 310.441 24.4394 310.606 24.2573C310.771 24.0753 310.762 23.9019 310.926 23.7199C310.918 23.5466 311.091 23.5378 311.082 23.3645C311.247 23.1824 311.238 23.0091 311.403 22.8271C311.403 22.8271 311.403 22.8271 311.394 22.6537C312.018 21.2322 312.468 19.8194 312.754 18.5886C313.109 18.7445 313.447 18.5538 313.941 18.0076C314.764 17.0974 312.831 16.6733 314.902 12.92C315.716 11.8364 316.166 10.4236 316.27 9.02823C320.421 8.64575 319.389 5.396 319.389 5.396L320.438 5.51706C318.565 2.83088 315.826 3.66364 314.804 4.06259C314.613 3.72464 314.431 3.56002 314.067 3.23078C312.229 1.23793 309.23 0.346093 306.318 1.18757C304.264 1.81214 302.592 3.11262 301.639 4.89823C299.889 8.11408 297.844 8.91199 296.484 9.5017C295.799 9.70989 295.652 10.2386 295.86 10.9232C292.125 12.6749 277.627 18.0956 270.035 19.1724L249.912 23.312C249.739 23.3207 249.739 23.3207 249.566 23.3294C248.023 23.7545 247.235 25.3581 247.66 26.9007C247.877 27.7586 248.596 28.2437 249.316 28.7289L248.805 28.9283C248.631 28.9371 248.631 28.9371 248.467 29.1191C246.933 29.7175 246.327 31.4857 246.916 32.8463C247.515 34.3801 249.283 34.9863 250.643 34.3966L251.839 33.9889C251.363 34.8817 251.406 35.7484 251.805 36.771C252.568 38.1228 254.337 38.729 255.68 37.7926L274.276 27.474C274.831 28.1412 275.385 28.8084 275.932 29.3022C274.84 31.7899 275.794 33.4796 278.836 31.7628C279.009 31.7541 279.018 31.9274 279.191 31.9187C276.488 36.9202 277.902 40.8458 282.018 36.2946C279.705 42.1453 281.83 46.3828 285.537 40.6357C284.014 48.3582 288.427 53.1758 290.348 43.0004C290.634 41.7697 290.92 40.5389 291.379 39.2994C291.231 39.8282 291.093 40.5302 290.937 40.8856C288.409 49.3537 292.744 56.0866 294.562 50.782C295.786 57.8451 300.952 60.3657 299.762 50.5206C299.71 49.4806 299.649 48.2672 299.588 47.0539C300.004 48.4231 300.239 49.6278 300.464 50.659C302.374 60.9893 311.596 64.6961 306.87 53.6386C306.272 52.1048 305.664 50.3976 305.222 48.5084C306.176 50.1981 306.947 51.7233 307.355 52.9192C312.514 62.2172 322.317 63.6359 315.051 53.9224Z" fill="#555555"/>
<path d="M128.933 75.6191L130.072 75.0722C129.676 75.8442 129.68 76.8999 130.198 77.8678C130.974 79.3197 132.802 79.7115 134.083 78.9643L152.527 68.4158C153.875 70.122 155.766 71.9116 158.082 73.1003C158.483 73.3839 159.054 73.6383 159.426 73.7509C159.597 73.7216 159.626 73.8927 159.797 73.8635C160.169 73.9761 160.569 74.2597 161.112 74.343C161.283 74.3138 161.312 74.4848 161.483 74.4556C162.025 74.5389 162.597 74.7933 163.14 74.8766C163.14 74.8766 163.14 74.8766 163.311 74.8474C163.853 74.9307 164.396 75.014 164.938 75.0973C165.109 75.0681 165.309 75.2099 165.481 75.1807C166.023 75.264 166.536 75.1763 167.079 75.2596C167.25 75.2303 167.25 75.2303 167.421 75.2011C168.134 75.2552 168.819 75.1381 169.503 75.0211C169.674 74.9919 169.845 74.9626 170.016 74.9334C170.529 74.8456 171.214 74.7286 171.727 74.6409C171.898 74.6116 172.069 74.5824 172.411 74.5239C173.095 74.4069 173.951 74.2607 174.777 73.9434C175.774 73.5968 176.6 73.2795 177.426 72.9622C177.597 72.9329 177.768 72.9037 177.91 72.7033C178.736 72.386 179.562 72.0687 180.188 71.6096C180.359 71.5803 180.501 71.38 180.501 71.38C181.156 71.092 181.953 70.6036 182.579 70.1444C183.204 69.6853 183.859 69.3972 184.314 68.9674C184.485 68.9381 184.456 68.7671 184.627 68.7378C185.082 68.308 185.536 67.8781 185.991 67.4482L186.133 67.2478C187.042 66.3881 187.752 65.3865 188.29 64.4142C188.29 64.4142 188.29 64.4141 188.431 64.2138C188.715 63.8132 188.969 63.2415 189.253 62.8408C189.904 61.4971 190.354 60.0116 190.662 58.7264C191.034 58.8389 191.376 58.7804 191.801 58.1794C192.711 57.3197 190.712 56.9572 192.693 53.097C193.544 51.8951 193.853 50.6099 193.961 49.1828C198.096 48.6519 197.027 45.4894 197.027 45.4894L198.082 45.4849C196.217 42.8107 193.367 43.6501 192.399 44.1677C192.169 43.8549 191.969 43.713 191.739 43.4001C189.82 41.4395 186.849 40.5389 183.999 41.3783C181.975 41.9003 180.469 43.3903 179.364 45.1639C177.75 48.0809 175.985 49.0869 174.675 49.6631C173.498 47.9275 171.837 46.4509 170.093 45.5166C164.718 42.9142 150.657 30.7043 146.703 19.9358C142.491 8.68328 138.22 17.6887 144.135 26.5374C145.312 28.2729 146.635 30.8638 148.417 34.0805C145.271 32.1535 142.437 29.9969 140.288 27.7234C132.091 18.9128 131.676 28.8437 140.26 34.7709C141.262 35.48 142.664 36.4728 144.125 37.8076C142.41 37.0445 140.866 36.252 139.292 35.2885C129.335 28.5396 131.173 38.2613 141.005 42.2146C141.948 42.5816 143.091 43.0904 144.435 43.741C143.35 43.5743 142.236 43.2366 141.122 42.8989C131.637 39.9427 133.115 45.5003 139.859 47.8687C134.184 48.6629 139.885 54.2027 148.697 53.2243C149.211 53.1365 149.753 53.2198 150.437 53.1028C149.069 53.3368 147.842 53.3705 146.615 53.4042C136.23 53.4191 139.961 58.7675 147.864 58.6488C146.212 59.2834 145.273 59.9722 144.848 60.5731L127.858 64.1823C127.687 64.2115 127.687 64.2115 127.516 64.2408C126.005 64.6751 125.242 66.3902 125.676 67.9005C125.994 68.7266 126.624 69.3232 127.367 69.5483L126.854 69.6361C126.682 69.6653 126.682 69.6653 126.511 69.6946C125.03 70.3 124.438 71.9858 125.044 73.4669C125.766 75.6324 127.452 76.2245 128.933 75.6191Z" fill="#555555"/>
</svg>
