<svg width="145" height="842" viewBox="0 0 145 842" fill="none" xmlns="http://www.w3.org/2000/svg">
<path d="M116.243 -72.9214C107.385 -30.3987 133.193 -26.4788 141.115 3.60236C148.442 31.4263 113.002 61.0283 85.665 52.0901C52.6942 41.31 45.6774 9.36603 85.665 14.3395C147.65 22.0489 122.957 108.171 98.0156 137.647C69.0533 171.874 -16.1697 170.063 14.0316 242.377C23.0366 263.938 37.8737 276.451 61.049 279.36C97.722 283.964 116.496 254.214 77.9991 233.94C29.6414 208.474 -43.0721 328.102 -12 375.079C177.5 661.579 -107.048 621.069 -55.2228 544.369C21.3264 431.079 59.6013 691.983 61.049 718.228C65.1424 792.438 -25.0397 785.242 -25.9603 859.559" stroke="url(#paint0_linear_5_572)" stroke-width="5" stroke-linejoin="round"/>
<defs>
<linearGradient id="paint0_linear_5_572" x1="74.8709" y1="-72.9214" x2="389.801" y2="2122.44" gradientUnits="userSpaceOnUse">
<stop stop-color="#7CC401"/>
<stop offset="0.26" stop-color="#FFAE00"/>
<stop offset="0.505" stop-color="#E74020"/>
</linearGradient>
</defs>
</svg>
