<svg width="145" height="846" viewBox="0 0 145 846" fill="none" xmlns="http://www.w3.org/2000/svg">
<path d="M116.243 -87C107.385 -44.4773 133.193 -40.5574 141.115 -10.4763C148.442 17.3477 113.002 46.9497 85.665 38.0115C52.6942 27.2314 45.6774 -4.71258 85.665 0.260918C147.65 7.97032 122.957 94.0921 98.0156 123.568C69.0533 157.795 -16.1697 155.985 14.0316 228.298C23.0366 249.86 37.8737 262.372 61.049 265.282C97.722 269.886 116.496 240.135 77.9991 219.862C29.6414 194.396 -43.0721 314.023 -12 361C177.5 647.5 -107.048 606.99 -55.2228 530.29C21.3264 417 59.6013 677.904 61.049 704.149C65.1424 778.359 -25.0397 771.163 -25.9603 845.48" stroke="url(#paint0_linear_5_572)" stroke-width="5" stroke-linejoin="round"/>
<defs>
<linearGradient id="paint0_linear_5_572" x1="74.8709" y1="-87" x2="389.801" y2="2108.36" gradientUnits="userSpaceOnUse">
<stop stop-color="#7CC401"/>
<stop offset="0.26" stop-color="#FFAE00"/>
<stop offset="0.505" stop-color="#E74020"/>
</linearGradient>
</defs>
</svg>
