<svg width="265" height="1090" viewBox="0 0 265 1090" fill="none" xmlns="http://www.w3.org/2000/svg">
<path d="M235.735 1.35522C226.877 43.8779 252.685 47.7978 260.607 77.879C267.934 105.703 232.494 135.305 205.157 126.367C172.186 115.587 165.169 83.6426 205.157 88.6161C267.142 96.3255 242.45 182.447 217.508 211.923C188.545 246.151 103.322 244.34 133.524 316.654C142.529 338.215 157.366 350.728 180.541 353.637C217.214 358.241 235.989 328.491 197.491 308.217C149.134 282.751 126.713 378.683 138.208 409.113C261.352 735.095 5.11412 689.846 64.2693 618.646C150.565 514.779 179.093 759.513 180.541 785.758C184.635 859.968 143.435 910.651 163.93 982.092C197.491 1099.08 43.6937 1012.46 2.8125 1088.75" stroke="url(#paint0_linear_5_701)" stroke-width="5"/>
<defs>
<linearGradient id="paint0_linear_5_701" x1="194.363" y1="1.35524" x2="509.293" y2="2196.72" gradientUnits="userSpaceOnUse">
<stop stop-color="#7CC401"/>
<stop offset="0.26" stop-color="#FFAE00"/>
<stop offset="0.505" stop-color="#E74020"/>
</linearGradient>
</defs>
</svg>
