<svg width="101" height="94" viewBox="0 0 101 94" fill="none" xmlns="http://www.w3.org/2000/svg">
<path d="M55.3594 25.6679L55.0127 26.0148C53.9726 28.0959 52.9326 30.524 51.8925 32.6052C50.5058 35.3801 49.119 38.5018 47.0389 41.2767C45.9988 42.6642 43.9187 42.6642 42.8786 41.9705C41.8386 41.2768 40.7985 40.583 40.4518 39.1956V38.8487C40.4518 38.8487 40.4518 38.8487 40.1051 38.8487C39.7585 39.5424 39.4118 40.583 39.0651 41.2767C38.3717 42.6642 37.6783 44.3985 36.985 45.786C36.6383 46.4797 35.9449 47.5203 34.5581 47.1734C33.1714 46.8266 31.7847 46.1328 31.438 44.7454C31.438 44.3985 31.438 44.0517 31.438 43.3579C31.0913 43.7048 31.0913 43.7048 30.7446 44.0517C29.7045 45.786 28.6645 47.1734 26.931 48.5609C24.5042 50.2952 22.4241 50.2952 19.6506 48.9077C17.5705 47.8672 16.1837 46.1328 15.837 43.7048C15.4904 42.6642 15.4904 41.6236 15.4904 40.2362C15.4904 39.8893 15.4904 39.8893 15.1437 39.5424C14.797 40.2362 14.4503 40.9299 13.7569 41.6236C12.7169 43.3579 11.6768 45.0922 10.29 46.4797C9.94336 46.8266 9.24998 46.8266 8.55661 46.4797C8.55661 46.4797 8.20992 46.1328 7.86323 45.786C7.86323 46.1328 7.51655 46.1328 7.51655 46.4797C7.51655 47.5203 7.16986 48.5609 7.16986 49.6015C6.82317 50.6421 6.47648 51.6827 6.47648 52.7232C6.1298 53.417 6.1298 54.1107 6.1298 54.8044C5.78311 56.5387 5.08974 58.2731 4.74305 60.0074C4.04967 60.3542 3.70299 60.7011 3.70299 61.048C3.3563 61.3948 3.00961 62.0886 3.00961 62.4354C3.00961 63.8229 2.31624 64.8635 1.96955 66.2509C1.96955 66.5978 1.27618 66.9446 0.929489 67.2915H0.236114C0.236114 66.9446 -0.110573 66.5978 0.236114 66.2509C1.62286 63.8229 1.96955 61.3948 2.66293 58.6199C3.00961 57.2325 3.3563 55.845 3.70299 54.8044C4.04967 53.7638 4.39636 52.3764 4.74305 51.3358C5.08974 50.2952 5.08974 49.2546 5.43642 48.5609C6.1298 46.1328 6.47648 43.7048 7.16986 41.2767C7.51655 38.8487 8.20992 36.4207 8.55661 33.9926C8.9033 31.9114 9.59667 29.8303 9.94336 27.7491C10.29 24.6273 10.9834 21.8524 11.6768 19.0775C12.3702 16.3026 13.0635 13.1808 14.4503 10.7528C14.797 10.4059 14.797 10.059 15.4904 10.4059C16.5304 11.0996 17.2238 11.7934 16.8771 13.1808C16.8771 13.8745 16.8771 14.5683 16.5304 15.262C15.4904 18.0369 14.797 20.8118 14.1036 23.5867C13.0635 27.4022 12.0235 30.8708 10.9834 34.6863C10.6367 36.4207 10.29 38.155 9.94336 39.8893C9.59667 40.583 9.59667 41.2768 9.24998 41.9705C9.24998 41.9705 9.24998 42.3173 9.24998 42.6642C9.59667 42.3173 9.59667 42.3173 9.59667 41.9705C10.9834 40.2362 12.0235 38.5018 13.4102 36.7675C14.1036 36.0738 14.4503 35.0332 15.1437 34.6863C15.837 34.3395 16.5304 33.9926 16.8771 33.2989C17.2238 32.6052 17.2238 32.2583 17.5705 31.9114C18.9572 29.4834 20.344 26.7085 21.7307 24.2804C22.7708 22.1993 23.8108 20.1181 24.8509 18.0369C26.2377 15.262 27.6244 12.4871 29.0112 9.71218C30.0512 7.631 31.0913 5.54982 32.1313 3.46863C32.8247 2.42804 33.1714 2.08118 33.8648 2.42804C34.5581 2.77491 35.2515 4.16236 34.9048 4.85609C34.5581 5.89668 34.2115 6.93727 33.5181 7.631C32.8247 8.67159 32.478 10.059 31.7847 11.0996C30.7446 13.8745 29.3578 16.3026 27.9711 18.7306C26.931 20.1181 25.891 21.5055 25.1976 23.2399C24.5042 24.2804 23.8108 25.321 23.1175 26.3616C22.0774 28.0959 21.0373 29.8303 19.9973 31.2177C19.6506 32.2583 18.9572 32.952 18.6105 33.9926C18.6105 34.3395 18.6105 34.6863 18.6105 35.0332C18.6105 35.7269 18.9572 36.7675 18.9572 37.4613C18.9572 40.2362 18.9572 42.6642 19.6506 45.4391C19.9973 46.1328 20.344 46.8266 21.0373 47.5203C21.384 47.8672 22.0774 47.8672 22.4241 47.8672C23.8108 47.5203 24.8509 46.4797 25.891 45.0923C26.5843 44.3985 27.2777 43.3579 27.9711 42.6642C29.0112 41.2768 29.7045 39.8893 30.7446 38.8487C31.7847 37.4613 32.478 35.7269 33.1714 33.9926V33.6458C33.5181 32.2583 33.5181 32.2583 34.9048 32.2583C35.2515 32.2583 35.9449 32.6052 36.2916 32.2583C36.6383 31.9114 36.6383 31.2177 36.6383 30.8708C37.3316 28.7897 37.6783 26.7085 38.3717 24.6273C38.3717 24.2804 38.7184 23.9336 38.7184 23.5867C39.0651 22.893 39.4118 22.5461 40.1051 22.893C40.4518 22.893 40.7985 22.893 40.7985 22.893C41.8386 22.893 42.8786 23.2399 43.2253 24.2804C43.2253 24.6273 43.572 24.9742 43.9187 24.9742C44.6121 25.321 44.6121 26.0148 44.6121 27.0554C44.2654 28.7897 43.9187 30.8708 43.572 32.6052C43.2253 33.9926 43.2253 35.3801 42.8786 36.7675C42.8786 37.8081 43.2253 38.5018 43.2253 39.5424C43.2253 39.5424 43.572 39.8893 43.572 39.5424C43.9187 39.5424 43.9187 39.1956 44.2654 38.8487C44.9588 37.8081 45.9988 36.4207 46.6922 35.3801C47.3856 34.3395 48.0789 33.2989 48.7723 31.9114C50.8524 29.4834 52.2392 26.3616 53.6259 23.5867C54.3193 22.1993 54.666 20.8118 55.3594 19.7712C56.7461 17.69 56.7461 14.9151 57.4395 12.4871C57.4395 12.4871 57.4395 12.4871 57.0928 12.1402C56.3994 12.4871 56.0528 12.4871 55.3594 12.8339C53.2793 13.8745 51.1991 14.5683 48.7723 15.6089C47.7323 15.9557 46.6922 16.9963 45.6521 16.9963C44.6121 16.9963 43.9187 16.9963 43.572 16.3026C42.8786 15.9557 42.8786 15.6089 43.572 15.262C44.6121 14.5683 45.9988 13.5277 47.3856 12.8339C49.8124 11.7934 51.8925 10.4059 54.3193 9.36531C55.7061 8.67159 56.7461 8.32472 58.1329 7.97786C58.4796 7.97786 58.4796 7.631 58.8263 7.28413C59.1729 5.20295 59.5196 3.12177 60.213 1.04059C60.5597 0.346863 60.5597 0 61.5998 0C61.9464 0 62.6398 0 62.9865 0C63.6799 0 64.0266 0.346863 64.0266 1.04059C64.0266 2.42804 63.6799 3.46863 63.6799 4.85609C63.6799 5.20295 63.6799 5.54982 63.3332 6.24354C64.0266 6.24354 64.3733 5.89668 64.7199 5.89668C67.1468 5.20295 69.5736 4.50923 72.3471 4.16236C73.3871 4.16236 74.0805 4.16236 75.1206 4.50922C75.4672 4.50922 75.8139 4.85609 76.1606 5.20295C75.8139 5.54982 75.8139 5.54982 75.4672 5.89668C72.0004 6.93727 68.8802 7.97786 65.4133 9.01845C64.3733 9.36531 63.3332 10.059 62.2931 10.4059C61.9464 10.4059 61.9464 10.7528 61.9464 11.0996C61.2531 14.2214 60.9064 17.3432 60.213 20.4649C59.8663 23.2399 59.1729 25.6679 58.8263 28.4428C58.4796 30.524 58.1329 32.952 58.1329 35.0332C57.7862 37.1144 57.7862 39.1956 57.4395 41.2767C57.4395 42.6642 57.4395 42.6642 58.8263 42.6642C60.5597 42.6642 62.2931 43.0111 63.6799 44.0517C63.6799 44.0517 63.6799 44.0517 64.0266 44.0517C64.3733 44.3985 64.3733 44.7454 64.3733 45.4391C64.3733 45.4391 64.0266 45.786 63.6799 45.786C62.9865 45.786 62.6398 45.786 62.2931 45.0923C62.2931 44.7454 61.5998 44.3985 61.5998 44.3985C60.213 44.3985 58.8263 44.7454 57.4395 44.7454H57.0928C52.9326 45.0922 49.119 46.8266 45.6521 48.9077C43.572 49.9483 41.4919 51.3358 39.4118 52.3764C38.3717 52.7232 37.6783 53.417 36.985 54.1107C36.6383 54.4576 36.2916 54.8044 36.2916 55.1513C35.5982 57.9262 35.2515 60.3542 34.5581 63.1292C33.8648 65.9041 33.1714 68.3321 32.8247 71.107C31.7846 72.4945 31.7847 73.5351 31.438 74.5756C31.0913 77.3506 30.3979 80.1255 30.0512 82.9004C29.7045 84.9815 29.7045 87.0627 29.0112 89.1439C28.6645 90.5314 28.6645 91.572 28.3178 92.9594C28.3178 93.6531 27.9711 94 27.2777 94C26.931 94 26.2377 94 25.891 94C26.5843 82.5535 28.3178 71.107 30.7446 60.0074C30.7446 60.0074 30.7446 60.0074 30.3979 60.0074C30.0512 60.3542 29.7045 60.3542 29.3578 60.7011C27.9711 61.7417 26.931 62.4354 25.5443 63.476C23.4642 65.2103 21.384 66.5978 18.9572 68.3321C16.8771 70.0664 14.797 71.8007 12.3702 73.5351C10.29 75.2694 8.20992 77.0037 5.78311 78.0443C5.43642 78.3911 4.74305 78.3911 4.04967 78.3911C3.3563 78.3911 3.00961 78.0443 3.3563 77.3505C4.04967 76.31 5.08974 75.2694 5.78311 74.5756C6.82317 73.5351 7.86323 72.4945 9.24998 71.4539C11.3301 69.7196 13.7569 67.9852 15.837 66.2509C18.6105 64.1697 21.384 62.0886 24.1575 60.0074C25.891 58.6199 27.6244 57.5793 29.7045 56.1919C30.3979 55.845 31.0913 55.1513 31.0913 54.1107C31.0913 53.7638 31.438 53.417 31.7847 53.417C32.478 53.417 32.8247 53.417 33.5181 53.417C33.8648 53.417 34.5581 53.0701 34.9048 52.7232C35.9449 52.0295 37.3316 51.3358 38.3717 50.6421C39.7585 49.9483 41.1452 48.9077 42.532 48.214C44.6121 47.1734 47.0389 46.1328 49.119 45.0923C50.5058 44.3985 51.5458 44.0517 52.9326 43.7048C53.2793 43.7048 53.6259 43.3579 53.6259 42.6642C53.6259 41.2768 53.6259 39.8893 53.6259 38.5018C53.6259 36.4207 53.9726 34.6863 54.3193 32.6052C55.0127 30.1771 55.3594 28.0959 55.3594 25.6679C55.3594 26.0148 55.3594 26.0148 55.3594 25.6679ZM41.4919 26.3616C41.4919 26.3616 41.1452 26.3616 41.1452 26.0148C40.7985 26.3616 40.4518 27.0553 40.4518 27.4022C40.1051 28.0959 40.1051 28.7897 39.7585 29.4834C39.4118 30.1771 39.0651 31.2177 38.7184 31.9114C38.3717 32.952 38.025 33.6458 37.6783 34.6863C36.985 35.7269 36.6383 36.7675 35.9449 38.155C35.5982 39.1956 35.2515 40.2362 34.9048 41.6236C34.9048 42.3173 34.9048 42.6642 34.9048 43.3579H35.2515C38.025 37.8081 40.7985 32.6052 41.4919 26.3616Z" fill="black"/>
<path d="M84.4811 23.9336C85.1745 23.2399 85.5212 22.5461 86.2145 21.8524C86.5612 21.5055 86.9079 20.8118 87.2546 20.4649C87.6013 20.1181 87.948 19.4244 88.2947 19.0775C88.988 18.0369 89.6814 16.9963 90.0281 16.3026L90.3748 15.9557C90.7215 15.6089 91.0682 14.9151 91.4149 14.5683C91.4149 14.5683 91.4149 14.2214 91.4149 13.8745C92.1082 13.1808 92.4549 12.4871 93.1483 11.7934C93.495 11.0996 94.1884 10.4059 94.535 9.71218C94.8817 9.36531 94.8817 9.01845 94.8817 9.01845C95.5751 9.01845 95.5751 8.32472 95.9218 7.631C96.6152 6.59041 97.3085 5.89668 98.0019 4.85609C98.3486 4.50922 98.6953 4.16236 99.042 3.8155C99.3887 3.8155 99.7354 3.46863 99.7354 3.46863C100.082 3.46863 100.082 4.16236 100.082 4.16236C100.082 4.85609 99.7354 5.54982 99.3887 5.89668C98.0019 8.32472 96.9619 10.7528 95.5751 12.8339C94.535 14.5683 93.495 16.6494 92.1082 18.3838C90.7215 20.8118 89.3347 22.893 87.948 25.321C87.2546 26.3616 86.5612 27.7491 85.1745 28.0959C84.1344 28.4428 82.7477 28.4428 82.0543 27.7491C81.7076 27.4022 81.0142 27.0554 80.6676 26.3616C80.3209 25.6679 80.3209 24.9742 79.9742 24.2804C79.9742 23.9336 79.9742 23.5867 79.6275 22.893C79.2808 23.5867 78.9341 24.2804 78.5874 24.9742C77.5474 27.0553 76.1606 29.1365 74.4272 30.8708C72.3471 32.952 70.2669 31.2177 69.5736 29.4834C68.8802 27.7491 69.5736 25.6679 70.2669 23.9336C71.307 21.5055 72.6937 19.4244 74.0805 17.3432C75.1206 15.6089 76.5073 14.2214 77.8941 12.8339C78.5874 11.7934 79.6275 11.7934 81.0142 12.1402C81.3609 12.1402 81.7076 12.1402 82.0543 11.7934C83.441 11.4465 83.441 11.0996 84.8278 11.7934C86.2145 12.1402 86.9079 12.8339 86.2145 14.2214C86.2145 14.5683 85.8679 14.5683 85.8679 14.9151C85.8679 15.9557 85.5212 16.6494 85.1745 17.69C84.4811 18.7306 84.4811 20.4649 84.4811 21.8524C84.4811 22.5461 84.4811 22.893 84.4811 23.9336C84.4811 23.5867 84.4811 23.5867 84.4811 23.9336ZM81.7076 15.9557C78.9341 17.69 72.3471 27.7491 73.0404 30.1771C74.7739 29.1365 81.7076 17.69 81.7076 15.9557Z" fill="black"/>
<path d="M49.4657 63.476C49.119 64.1697 48.4256 64.8635 48.0789 65.5572C47.3856 66.9446 46.6922 68.3321 45.9988 69.7196C45.3055 70.7601 44.6121 72.1476 44.2654 73.1882C43.2253 75.6162 41.8386 77.6974 41.4919 80.1255C41.1452 81.1661 40.7985 82.2066 40.4518 83.2472L40.1051 83.5941L39.7585 83.2472C39.7585 82.2066 39.4118 81.1661 39.4118 80.1255C39.7585 75.2694 41.8386 70.7601 43.9187 66.5978C44.9588 64.1697 46.3455 61.7417 47.7323 59.3137C48.4256 57.9262 47.7323 56.8856 47.0389 55.845C47.0389 55.4982 46.6922 55.4982 46.6922 55.1513C47.0389 55.1513 47.0389 54.8044 47.3856 54.8044C48.079 54.8044 48.4256 54.8044 49.119 55.1513C49.8124 55.4982 50.1591 55.4981 50.5058 54.8044C51.1991 53.7638 52.2392 52.7232 52.9326 51.6827C53.6259 50.6421 56.0527 50.6421 57.0928 51.6827C57.7862 52.0295 57.7862 53.0701 57.0928 53.417C55.3594 55.1513 53.6259 57.2325 52.5859 59.3137C52.5859 59.6605 52.5859 60.0074 52.5859 60.0074C52.9326 61.3948 53.2793 62.4354 53.6259 63.8229C53.9726 64.5166 53.9726 65.5572 53.9726 66.5978C53.9726 67.2915 53.2793 67.9852 52.9326 67.9852C51.8925 67.9852 51.1991 67.2915 51.1991 66.5978C50.1591 65.2103 49.8124 64.1697 49.4657 63.476C49.8124 63.476 49.8124 63.476 49.4657 63.476Z" fill="black"/>
<path d="M62.2931 38.8487C62.2931 33.6458 63.6799 28.7897 64.7199 24.2804C65.0666 22.893 65.4133 21.8524 65.4133 20.4649C65.76 19.4244 66.1067 19.4244 67.1468 19.0775C67.4934 19.0775 67.8401 19.0775 68.1868 19.0775C69.5736 19.7712 70.6136 20.4649 69.9202 22.5461C69.2269 24.6273 68.5335 26.3616 67.8401 28.4428C67.1468 30.524 66.1067 32.6052 65.4133 34.3395C65.0666 35.0332 64.7199 35.7269 64.3733 36.4207C64.0266 37.1144 63.3332 37.8081 62.9865 38.5018C62.9865 38.8487 62.6398 38.8487 62.2931 38.8487Z" fill="black"/>
<path d="M61.2531 64.8635C61.5998 62.7823 61.9464 60.3542 62.2931 58.2731C62.6398 56.8856 62.9865 55.1513 63.3332 53.7638C63.6799 52.3764 64.0266 50.6421 64.3733 49.2546C64.3733 48.5609 65.0666 48.5609 65.4133 48.5609C66.4534 48.9077 67.4934 49.2546 67.8401 50.2952C67.8401 50.6421 68.1868 50.9889 67.8401 51.3358C67.1468 53.7638 66.1067 56.1919 65.4133 58.9668C65.0666 60.3542 64.7199 61.3948 64.3733 62.7823C64.0266 63.8229 63.6799 64.5166 63.3332 65.2103C62.9865 65.5572 62.6398 65.9041 62.2931 66.2509C62.2931 66.2509 61.5998 65.9041 61.5998 65.5572C61.2531 65.5572 61.2531 65.2103 61.2531 64.8635Z" fill="black"/>
<path d="M67.1468 43.3579C67.1468 41.6236 67.4934 39.8893 68.5335 38.5018C68.5335 38.155 69.2269 38.155 69.2269 38.155C70.6136 38.155 71.307 38.8487 72.3471 39.5424C72.6937 39.8893 72.6937 40.583 72.3471 41.2767C71.6537 42.3173 70.9603 43.0111 70.2669 44.0517C69.9202 44.3985 69.9202 44.7454 69.5736 44.7454C67.4934 45.4391 67.1468 45.0923 67.1468 43.3579Z" fill="black"/>
<path d="M69.9202 14.5683C69.5736 14.5683 69.2269 14.9151 68.8802 14.9151C68.1868 15.262 68.1868 14.9151 68.1868 14.5683C68.1868 14.2214 68.1868 13.8745 68.1868 13.8745C67.8401 12.4871 68.1868 12.1402 69.5736 12.4871C70.2669 12.4871 70.9603 12.8339 71.6537 13.1808C72.0004 13.1808 72.3471 13.8745 72.0004 14.2214C72.0004 14.5683 71.6537 14.9151 71.307 14.9151C70.6136 14.5683 70.2669 14.5683 69.9202 14.5683Z" fill="black"/>
</svg>
