<svg width="570" height="558" viewBox="0 0 570 558" fill="none" xmlns="http://www.w3.org/2000/svg">
<path d="M113.5 236.5L67.5 297L257 459L480.5 172L426 136.5L244 346L113.5 236.5Z" fill="#76A919"/>
<path d="M110.336 248.783L69.0319 312.581L270.214 459.823L471.424 156.779L414.401 125.492L248.726 348.126L110.336 248.783Z" stroke="black" stroke-width="2"/>
<line x1="225.003" y1="79.0757" x2="219.003" y2="0.0757292" stroke="black" stroke-width="2"/>
<line x1="304.016" y1="99.8225" x2="315.016" y2="38.8225" stroke="black" stroke-width="2"/>
<line x1="392.103" y1="99.5576" x2="429.103" y2="24.5576" stroke="black" stroke-width="2"/>
<line x1="502.386" y1="120.211" x2="529.386" y2="99.2106" stroke="black" stroke-width="2"/>
<line x1="503.091" y1="237.004" x2="569.091" y2="243.004" stroke="black" stroke-width="2"/>
<line x1="473.648" y1="297.238" x2="493.648" y2="314.238" stroke="black" stroke-width="2"/>
<line x1="421.43" y1="370.097" x2="503.43" y2="409.097" stroke="black" stroke-width="2"/>
<line x1="382.685" y1="442.272" x2="399.685" y2="458.272" stroke="black" stroke-width="2"/>
<line x1="316.868" y1="484.504" x2="340.868" y2="526.504" stroke="black" stroke-width="2"/>
<line x1="226.949" y1="494.316" x2="205.949" y2="557.316" stroke="black" stroke-width="2"/>
<line x1="167.788" y1="451.616" x2="149.788" y2="474.616" stroke="black" stroke-width="2"/>
<line x1="107.578" y1="390.816" x2="42.5777" y2="436.816" stroke="black" stroke-width="2"/>
<line x1="42.1146" y1="342.993" x2="16.1146" y2="345.993" stroke="black" stroke-width="2"/>
<line x1="56.5401" y1="244.888" x2="0.540145" y2="215.888" stroke="black" stroke-width="2"/>
<line x1="106.504" y1="167.868" x2="85.5039" y2="155.868" stroke="black" stroke-width="2"/>
<line x1="166.336" y1="129.747" x2="121.336" y2="89.7474" stroke="black" stroke-width="2"/>
<line x1="204.12" y1="100.476" x2="184.12" y2="63.4755" stroke="black" stroke-width="2"/>
</svg>
