<svg width="206" height="184" viewBox="0 0 206 184" fill="none" xmlns="http://www.w3.org/2000/svg">
<path id="Star 5" d="M203.7 84.9914C206.169 89.3484 206.169 94.6821 203.7 99.0391L181.848 137.592L159.386 175.792C156.848 180.109 152.229 182.776 147.221 182.816L102.908 183.168L58.5945 182.816C53.5865 182.776 48.9673 180.109 46.4288 175.792L23.9672 137.592L2.11567 99.0391C-0.353861 94.6821 -0.353861 89.3483 2.11567 84.9914L23.9672 46.439L46.4288 8.23879C48.9673 3.92163 53.5865 1.25474 58.5945 1.21493L102.908 0.862682L147.221 1.21493C152.229 1.25474 156.848 3.92163 159.386 8.2388L181.848 46.439L203.7 84.9914Z" fill="#76A919"/>
</svg>
