<svg width="191" height="171" viewBox="0 0 191 171" fill="none" xmlns="http://www.w3.org/2000/svg">
<path id="Star 6" d="M188.79 78.5156C191.26 82.8726 191.26 88.2064 188.79 92.5633L168.774 127.878L148.199 162.87C145.661 167.187 141.041 169.854 136.033 169.893L95.442 170.216L54.8506 169.893C49.8426 169.854 45.2234 167.187 42.6849 162.87L22.1098 127.878L2.09359 92.5633C-0.375938 88.2063 -0.375941 82.8726 2.09359 78.5156L22.1098 43.2011L42.6849 8.20932C45.2234 3.89216 49.8426 1.22527 54.8506 1.18546L95.442 0.862789L136.033 1.18546C141.041 1.22527 145.661 3.89216 148.199 8.20932L168.774 43.2011L188.79 78.5156Z" fill="url(#paint0_linear_548_2575)"/>
<defs>
<linearGradient id="paint0_linear_548_2575" x1="192.771" y1="85.5395" x2="-1.88753" y2="85.5395" gradientUnits="userSpaceOnUse">
<stop stop-color="#F97316"/>
</linearGradient>
</defs>
</svg>
