<svg width="194" height="169" viewBox="0 0 194 169" fill="none" xmlns="http://www.w3.org/2000/svg">
<path id="Star 9" d="M190.478 97.0286L168.461 129.291L168.456 129.297L145.527 161.745C142.797 165.609 138.274 167.801 133.55 167.549L92.0377 165.339L92.0306 165.338L50.5566 162.501C45.8365 162.178 41.6127 159.455 39.3708 155.289L20.5435 120.3L20.5399 120.294L2.59462 85.601C0.26873 81.1045 0.597791 75.6944 3.4515 71.5129L25.4691 39.251L25.4735 39.2446L48.4025 6.79618C51.1328 2.93236 55.6556 0.740817 60.38 0.992391L101.892 3.20284L101.899 3.20327L143.373 6.04027C148.093 6.36314 152.317 9.08667 154.559 13.2529L173.388 48.2446L173.39 48.2479L191.335 82.9405C193.661 87.437 193.332 92.8472 190.478 97.0286Z" stroke="black" stroke-width="0.949619"/>
</svg>
