<svg width="221" height="196" viewBox="0 0 221 196" fill="none" xmlns="http://www.w3.org/2000/svg">
<path d="M218.275 91.3041C220.745 95.6611 220.745 100.995 218.275 105.352L194.626 147.076L170.316 188.419C167.778 192.736 163.159 195.403 158.151 195.443L110.192 195.824L62.2333 195.443C57.2253 195.403 52.6061 192.736 50.0676 188.419L25.7581 147.076L2.10885 105.352C-0.360682 100.995 -0.360682 95.6611 2.10885 91.3041L25.7581 49.58L50.0676 8.23712C52.6061 3.91995 57.2253 1.25307 62.2333 1.21326L110.192 0.832026L158.151 1.21326C163.159 1.25307 167.778 3.91996 170.316 8.23712L194.626 49.58L218.275 91.3041Z" fill="#FFA000"/>
</svg>
