<svg width="166" height="148" viewBox="0 0 166 148" fill="none" xmlns="http://www.w3.org/2000/svg">
<path id="Star 3" d="M164.005 66.8063C166.474 71.1633 166.474 76.497 164.005 80.854L147.135 110.617L129.795 140.108C127.256 144.425 122.637 147.092 117.629 147.132L83.4188 147.403L49.2087 147.132C44.2007 147.092 39.5815 144.425 37.043 140.108L19.7024 110.617L2.83289 80.854C0.363357 76.497 0.363363 71.1633 2.83289 66.8063L19.7024 37.0435L37.043 7.55262C39.5815 3.23546 44.2007 0.568581 49.2087 0.528772L83.4188 0.256832L117.629 0.528775C122.637 0.568585 127.256 3.23547 129.795 7.55264L147.135 37.0435L164.005 66.8063Z" fill="black"/>
</svg>
