<svg width="213" height="198" viewBox="0 0 213 198" fill="none" xmlns="http://www.w3.org/2000/svg">
<path d="M210.783 100.829L189.994 143.354L189.99 143.361L168.696 185.242C166.476 189.609 162.102 192.467 157.211 192.748L111.43 195.377L111.422 195.378L65.6039 197.259C60.7091 197.46 56.0761 195.045 53.4375 190.917L28.1318 151.331L28.1278 151.324L3.26143 111.047C0.778652 107.026 0.531787 102.012 2.60751 97.766L23.397 55.241L23.4003 55.2343L44.6948 13.3534C46.9151 8.98649 51.2884 6.12816 56.1793 5.84727L101.961 3.2179L101.968 3.21752L147.787 1.33677C152.682 1.13584 157.315 3.55072 159.953 7.67834L185.259 47.2648L185.263 47.2711L210.129 87.5482C212.612 91.5697 212.859 96.5834 210.783 100.829Z" stroke="black" stroke-width="0.949619"/>
</svg>
