<svg width="163" height="145" viewBox="0 0 163 145" fill="none" xmlns="http://www.w3.org/2000/svg">
<path id="Star 7" d="M160.61 75.6704L145.569 104.775L145.565 104.782L129.91 133.915C127.643 138.134 123.346 140.872 118.565 141.145L84.7986 143.07L84.7912 143.07L50.9993 144.472C46.2139 144.67 41.6691 142.367 38.9985 138.392L20.557 110.937L20.5527 110.93L2.72542 83.4442C0.0346043 79.2955 -0.225021 74.0226 2.04523 69.6297L17.0862 40.5253L17.0898 40.5186L32.7451 11.3848C35.0122 7.16578 39.3087 4.42796 44.0905 4.15532L77.8566 2.23004L77.864 2.22967L111.656 0.828578C116.441 0.630155 120.986 2.93265 123.657 6.90851L142.1 34.3667L142.102 34.3699L159.93 61.8559C162.621 66.0045 162.88 71.2775 160.61 75.6704Z" stroke="black" stroke-width="0.949619"/>
</svg>
