<svg width="204" height="180" viewBox="0 0 204 180" fill="none" xmlns="http://www.w3.org/2000/svg">
<path id="Star 8" d="M201.369 92.2774L181.826 130.094L181.823 130.1L161.524 167.875C159.257 172.094 154.96 174.832 150.179 175.105L106.44 177.599L106.433 177.599L62.6614 179.414C57.876 179.612 53.3313 177.31 50.6607 173.334L26.7493 137.736L26.7451 137.729L3.58153 102.016C0.890713 97.8673 0.631087 92.5943 2.90134 88.2014L22.4445 50.3853L22.4481 50.3785L42.7468 12.6036C45.0139 8.38458 49.3104 5.64675 54.0922 5.37411L97.8303 2.88026L97.8377 2.8799L141.609 1.06501C146.395 0.866585 150.939 3.16908 153.61 7.14494L177.523 42.7463L177.526 42.7495L200.689 78.4629C203.38 82.6115 203.64 87.8845 201.369 92.2774Z" stroke="black" stroke-width="0.949619"/>
</svg>
