<svg width="829" height="193" viewBox="0 0 829 193" fill="none" xmlns="http://www.w3.org/2000/svg">
<g filter="url(#filter0_d_1002_953)">
<path fill-rule="evenodd" clip-rule="evenodd" d="M3.18579 2.11304V72.1385H23.5581V20.5197H47.1576V72.1385H67.5299V2.11304H3.18579ZM82.9619 2.11304V72.1385H103.334V50.5306H112.613C118.664 50.5306 123.824 49.5803 128.094 47.6796C132.363 45.7789 135.624 43.0279 137.876 39.4266C140.129 35.8253 141.255 31.457 141.255 26.3218C141.255 21.22 140.028 16.8684 137.574 13.2671C135.153 9.63244 131.825 6.86477 127.589 4.96408C123.354 3.06338 118.529 2.11304 113.117 2.11304H82.9619ZM150.821 72.1385V2.11304H170.992V40.627L195.095 2.11304H215.568V72.1385H195.398V33.0243L171.193 72.1385H150.821ZM230.991 2.11304V72.1385H251.363V45.2287H274.963V72.1385H295.335V2.11304H274.963V26.822H251.363V2.11304H230.991ZM310.767 72.1385V2.11304H331.139H353.73H374.103V53.7318H385.6V89.6449H366.236V72.1385H361.194H310.767ZM395.566 2.11304V72.1385H415.939L440.143 33.0243V72.1385H460.314V2.11304H439.841L415.737 40.627V2.11304H395.566ZM475.736 72.1385V2.11304H540.081V72.1385H519.708H496.109H475.736ZM555.513 2.11304V72.1385H584.659C589.197 72.1385 593.232 71.605 596.761 70.5379C600.325 69.4708 603.334 67.9036 605.788 65.8362C608.242 63.7354 610.108 61.1845 611.385 58.1834C612.662 55.1823 613.301 51.7644 613.301 47.9297C613.301 42.8278 612.074 38.4762 609.62 34.8749C607.166 31.2403 603.821 28.4726 599.585 26.5719C595.349 24.6712 590.542 23.7209 585.163 23.7209H575.885V2.11304H555.513ZM622.176 2.11304V72.1385H642.549V2.11304H622.176ZM188.995 172.516C182.939 172.516 177.455 171.846 172.543 170.506C167.665 169.166 163.224 167.123 159.221 164.376L167.699 148.7C170.121 150.71 172.981 152.284 176.278 153.423C179.608 154.562 183.006 155.131 186.472 155.131C188.86 155.131 190.929 154.863 192.679 154.327C194.428 153.758 195.774 152.971 196.716 151.966C197.692 150.961 198.179 149.772 198.179 148.398C198.179 146.523 197.389 145.116 195.808 144.178C194.26 143.24 191.888 142.771 188.692 142.771H174.057V127.597H187.178C189.129 127.597 190.761 127.396 192.073 126.994C193.419 126.593 194.428 126.006 195.101 125.236C195.808 124.432 196.161 123.477 196.161 122.372C196.161 121.267 195.824 120.362 195.152 119.659C194.479 118.922 193.402 118.369 191.922 118.001C190.475 117.632 188.591 117.448 186.27 117.448C183.309 117.448 180.332 117.984 177.338 119.056C174.343 120.094 171.904 121.468 170.02 123.176L161.037 108.404C164.435 105.49 168.607 103.229 173.553 101.621C178.498 99.9798 183.747 99.1592 189.298 99.1592C194.95 99.1592 199.794 99.9128 203.831 101.42C207.902 102.894 211.014 105.021 213.167 107.801C215.354 110.581 216.448 113.897 216.448 117.75C216.448 119.692 216.078 121.568 215.337 123.377C214.631 125.186 213.588 126.844 212.209 128.351C210.863 129.858 209.248 131.148 207.364 132.22C211.3 133.66 214.294 135.804 216.347 138.651C218.433 141.465 219.475 144.881 219.475 148.901C219.475 153.624 218.214 157.761 215.691 161.311C213.167 164.828 209.618 167.575 205.043 169.551C200.467 171.528 195.118 172.516 188.995 172.516ZM295.43 100.667V152.519H306.936V188.594H287.558V171.008H245.801H243.754V188.594H224.376V153.624C227.236 152.987 229.574 152.033 231.391 150.76C233.207 149.487 234.62 147.645 235.63 145.233C236.673 142.788 237.396 139.539 237.8 135.486C238.203 131.433 238.405 126.325 238.405 120.161V100.667H295.43ZM334.902 169.752C339.545 171.595 344.625 172.516 350.142 172.516C355.66 172.516 360.723 171.595 365.332 169.752C369.975 167.876 373.995 165.281 377.393 161.964C380.825 158.648 383.483 154.763 385.367 150.308C387.251 145.853 388.193 141.029 388.193 135.837C388.193 130.713 387.251 125.939 385.367 121.518C383.483 117.063 380.825 113.161 377.393 109.811C373.995 106.461 369.975 103.849 365.332 101.973C360.723 100.097 355.66 99.1592 350.142 99.1592C344.625 99.1592 339.545 100.08 334.902 101.923C330.259 103.765 326.222 106.344 322.791 109.66C319.393 112.976 316.752 116.862 314.868 121.317C313.017 125.772 312.092 130.612 312.092 135.837C312.092 141.029 313.017 145.853 314.868 150.308C316.752 154.763 319.393 158.648 322.791 161.964C326.222 165.281 330.259 167.876 334.902 169.752ZM356.854 152.318C354.836 153.121 352.598 153.523 350.142 153.523C346.879 153.523 343.986 152.803 341.462 151.363C338.973 149.923 337.022 147.879 335.609 145.233C334.196 142.587 333.489 139.455 333.489 135.837C333.489 133.124 333.893 130.679 334.7 128.502C335.508 126.325 336.652 124.466 338.132 122.925C339.612 121.384 341.362 120.212 343.38 119.408C345.432 118.57 347.686 118.151 350.142 118.151C353.406 118.151 356.282 118.872 358.772 120.312C361.295 121.752 363.263 123.796 364.676 126.442C366.089 129.088 366.796 132.22 366.796 135.837C366.796 138.551 366.392 140.996 365.585 143.173C364.777 145.35 363.633 147.209 362.153 148.75C360.673 150.291 358.906 151.48 356.854 152.318ZM399.324 100.667H429.502C434.918 100.667 439.746 101.621 443.985 103.53C448.224 105.44 451.555 108.22 453.977 111.871C456.433 115.489 457.661 119.86 457.661 124.985C457.661 130.143 456.534 134.531 454.28 138.149C452.026 141.766 448.763 144.53 444.49 146.439C440.217 148.348 435.053 149.303 428.997 149.303H419.712V171.008H399.324V100.667ZM485.704 169.752C490.347 171.595 495.427 172.516 500.945 172.516C506.462 172.516 511.525 171.595 516.135 169.752C520.777 167.876 524.798 165.281 528.196 161.964C531.627 158.648 534.285 154.763 536.169 150.308C538.053 145.853 538.995 141.029 538.995 135.837C538.995 130.713 538.053 125.939 536.169 121.518C534.285 117.063 531.627 113.161 528.196 109.811C524.798 106.461 520.777 103.849 516.135 101.973C511.525 100.097 506.462 99.1592 500.945 99.1592C495.427 99.1592 490.347 100.08 485.704 101.923C481.062 103.765 477.025 106.344 473.593 109.66C470.195 112.976 467.554 116.862 465.67 121.317C463.82 125.772 462.894 130.612 462.894 135.837C462.894 141.029 463.82 145.853 465.67 150.308C467.554 154.763 470.195 158.648 473.593 161.964C477.025 165.281 481.062 167.876 485.704 169.752ZM550.126 100.667H579.598C587.066 100.667 593.004 102.174 597.412 105.188C601.819 108.17 604.023 112.625 604.023 118.553C604.023 120.63 603.636 122.523 602.862 124.231C602.088 125.906 601.012 127.413 599.632 128.753C598.253 130.059 596.655 131.181 594.838 132.119C598.572 133.526 601.533 135.804 603.72 138.953C605.94 142.068 607.05 145.685 607.05 149.805C607.05 154.193 605.94 157.978 603.72 161.161C601.533 164.309 598.404 166.738 594.333 168.446C590.296 170.154 585.485 171.008 579.901 171.008H550.126V100.667ZM636.605 169.752C641.248 171.595 646.328 172.516 651.846 172.516C657.363 172.516 662.426 171.595 667.035 169.752C671.678 167.876 675.698 165.281 679.096 161.964C682.528 158.648 685.186 154.763 687.07 150.308C688.954 145.853 689.896 141.029 689.896 135.837C689.896 130.713 688.954 125.939 687.07 121.518C685.186 117.063 682.528 113.161 679.096 109.811C675.698 106.461 671.678 103.849 667.035 101.973C662.426 100.097 657.363 99.1592 651.846 99.1592C646.328 99.1592 641.248 100.08 636.605 101.923C631.963 103.765 627.925 106.344 624.494 109.66C621.096 112.976 618.455 116.862 616.571 121.317C614.721 125.772 613.795 130.612 613.795 135.837C613.795 141.029 614.721 145.853 616.571 150.308C618.455 154.763 621.096 158.648 624.494 161.964C627.925 165.281 631.963 167.876 636.605 169.752ZM658.557 152.318C656.539 153.121 654.302 153.523 651.846 153.523C648.582 153.523 645.689 152.803 643.166 151.363C640.676 149.923 638.725 147.879 637.312 145.233C635.899 142.587 635.192 139.455 635.192 135.837C635.192 133.124 635.596 130.679 636.403 128.502C637.211 126.325 638.355 124.466 639.835 122.925C641.315 121.384 643.065 120.212 645.083 119.408C647.136 118.57 649.39 118.151 651.846 118.151C655.109 118.151 657.985 118.872 660.475 120.312C662.998 121.752 664.966 123.796 666.379 126.442C667.792 129.088 668.499 132.22 668.499 135.837C668.499 138.551 668.095 140.996 667.288 143.173C666.48 145.35 665.336 147.209 663.856 148.75C662.376 150.291 660.61 151.48 658.557 152.318ZM701.027 100.667H746.445V119.156H721.415V171.008H701.027V100.667ZM771.933 169.752C776.576 171.595 781.656 172.516 787.173 172.516C792.691 172.516 797.754 171.595 802.363 169.752C807.006 167.876 811.026 165.281 814.424 161.964C817.856 158.648 820.514 154.763 822.398 150.308C824.282 145.853 825.224 141.029 825.224 135.837C825.224 130.713 824.282 125.939 822.398 121.518C820.514 117.063 817.856 113.161 814.424 109.811C811.026 106.461 807.006 103.849 802.363 101.973C797.754 100.097 792.691 99.1592 787.173 99.1592C781.656 99.1592 776.576 100.08 771.933 101.923C767.29 103.765 763.253 106.344 759.822 109.66C756.424 112.976 753.783 116.862 751.899 121.317C750.048 125.772 749.123 130.612 749.123 135.837C749.123 141.029 750.048 145.853 751.899 150.308C753.783 154.763 756.424 158.648 759.822 161.964C763.253 165.281 767.29 167.876 771.933 169.752Z" fill="white" fill-opacity="0.4" shape-rendering="crispEdges"/>
</g>
<defs>
<filter id="filter0_d_1002_953" x="0.185791" y="0.113037" width="828.038" height="192.481" filterUnits="userSpaceOnUse" color-interpolation-filters="sRGB">
<feFlood flood-opacity="0" result="BackgroundImageFix"/>
<feColorMatrix in="SourceAlpha" type="matrix" values="0 0 0 0 0 0 0 0 0 0 0 0 0 0 0 0 0 0 127 0" result="hardAlpha"/>
<feOffset dy="1"/>
<feGaussianBlur stdDeviation="1.5"/>
<feComposite in2="hardAlpha" operator="out"/>
<feColorMatrix type="matrix" values="0 0 0 0 1 0 0 0 0 1 0 0 0 0 1 0 0 0 0.4 0"/>
<feBlend mode="normal" in2="BackgroundImageFix" result="effect1_dropShadow_1002_953"/>
<feBlend mode="normal" in="SourceGraphic" in2="effect1_dropShadow_1002_953" result="shape"/>
</filter>
</defs>
</svg>
